<svg width="30" height="30" viewBox="0 0 30 30" fill="none" xmlns="http://www.w3.org/2000/svg">
<path d="M0.627628 0.627628C1.46447 -0.209209 2.82125 -0.209209 3.65809 0.627628L15 11.9695L26.3419 0.627628C27.1788 -0.209209 28.5355 -0.209209 29.3724 0.627628C30.2092 1.46447 30.2092 2.82125 29.3724 3.65809L18.0305 15L29.3724 26.3419C30.2092 27.1788 30.2092 28.5355 29.3724 29.3724C28.5355 30.2092 27.1788 30.2092 26.3419 29.3724L15 18.0305L3.65809 29.3724C2.82125 30.2092 1.46447 30.2092 0.627628 29.3724C-0.209209 28.5355 -0.209209 27.1788 0.627628 26.3419L11.9695 15L0.627628 3.65809C-0.209209 2.82125 -0.209209 1.46447 0.627628 0.627628Z" fill="black"/>
</svg>
