<svg width="60" height="60" viewBox="0 0 60 60" fill="none" xmlns="http://www.w3.org/2000/svg">
<path fill-rule="evenodd" clip-rule="evenodd" d="M4.40593 0C1.97255 0 0 1.92492 0 4.29802V55.702C0 58.0759 1.97255 60 4.40593 60L55.5941 60C58.0274 60 60 58.0759 60 55.702V4.29803C60 1.92493 58.0274 0 55.5941 0H4.40593ZM8.68081 48.375C10.5116 50.125 13.1488 51 16.5925 51C20.0361 51 22.6515 50.125 24.4387 48.375C26.2695 46.625 27.1849 44.1556 27.1849 40.9667V35.1917H20.3848V41.4333C20.3848 43.9222 19.1861 45.1667 16.7886 45.1667C14.3912 45.1667 13.1924 43.9222 13.1924 41.4333V18.625C13.1924 16.0972 14.3912 14.8333 16.7886 14.8333C19.1861 14.8333 20.3848 16.0972 20.3848 18.625V23.35H27.1849V19.0333C27.1849 15.8444 26.2695 13.375 24.4387 11.625C22.6515 9.875 20.0361 9 16.5925 9C13.1488 9 10.5116 9.875 8.68081 11.625C6.8936 13.375 6 15.8444 6 19.0333V40.9667C6 44.1556 6.8936 46.625 8.68081 48.375ZM36.8498 9.58333H29.5919L36.5228 50.4167H46.0691L53 9.58333H46.3961L41.6883 41.2583H41.5575L36.8498 9.58333Z" fill="black"/>
</svg>
