<svg width="30" height="30" viewBox="0 0 30 30" fill="none" xmlns="http://www.w3.org/2000/svg">
<path d="M6.30292 18.9576C6.30292 20.6921 4.88599 22.1091 3.15146 22.1091C1.41694 22.1091 0 20.6921 0 18.9576C0 17.2231 1.41694 15.8062 3.15146 15.8062H6.30292V18.9576Z" fill="#352D29"/>
<path d="M7.89088 18.9576C7.89088 17.2231 9.30781 15.8062 11.0423 15.8062C12.7769 15.8062 14.1938 17.2231 14.1938 18.9576V26.8485C14.1938 28.583 12.7769 29.9999 11.0423 29.9999C9.30781 29.9999 7.89088 28.583 7.89088 26.8485V18.9576Z" fill="#352D29"/>
<path d="M11.0423 6.30292C9.30781 6.30292 7.89088 4.88599 7.89088 3.15146C7.89088 1.41694 9.30781 0 11.0423 0C12.7769 0 14.1938 1.41694 14.1938 3.15146V6.30292H11.0423Z" fill="#352D29"/>
<path d="M11.0423 7.89087C12.7769 7.89087 14.1938 9.3078 14.1938 11.0423C14.1938 12.7769 12.7769 14.1938 11.0423 14.1938H3.15146C1.41694 14.1938 0 12.7769 0 11.0423C0 9.3078 1.41694 7.89087 3.15146 7.89087H11.0423Z" fill="#352D29"/>
<path d="M23.6971 11.0423C23.6971 9.3078 25.114 7.89087 26.8485 7.89087C28.5831 7.89087 30 9.3078 30 11.0423C30 12.7769 28.5831 14.1938 26.8485 14.1938H23.6971V11.0423Z" fill="#352D29"/>
<path d="M22.1091 11.0423C22.1091 12.7769 20.6921 14.1938 18.9576 14.1938C17.2231 14.1938 15.8061 12.7769 15.8061 11.0423V3.15146C15.8061 1.41694 17.2231 0 18.9576 0C20.6921 0 22.1091 1.41694 22.1091 3.15146V11.0423Z" fill="#352D29"/>
<path d="M18.9577 23.697C20.6922 23.697 22.1091 25.114 22.1091 26.8485C22.1091 28.583 20.6922 29.9999 18.9577 29.9999C17.2231 29.9999 15.8062 28.583 15.8062 26.8485V23.697H18.9577Z" fill="#352D29"/>
<path d="M18.9576 22.1091C17.2231 22.1091 15.8061 20.6921 15.8061 18.9576C15.8061 17.2231 17.2231 15.8062 18.9576 15.8062H26.8485C28.583 15.8062 29.9999 17.2231 29.9999 18.9576C29.9999 20.6921 28.583 22.1091 26.8485 22.1091H18.9576Z" fill="#352D29"/>
</svg>
