<svg width="60" height="60" viewBox="0 0 60 60" fill="none" xmlns="http://www.w3.org/2000/svg">
<path fill-rule="evenodd" clip-rule="evenodd" d="M4.40593 0C1.97255 0 0 1.92492 0 4.29802V55.702C0 58.0759 1.97255 60 4.40593 60L55.5941 60C58.0274 60 60 58.0759 60 55.702V4.29803C60 1.92493 58.0274 0 55.5941 0H4.40593ZM34.1181 28.49C34.8461 31.878 35.2941 33.88 35.4621 34.496L36.0081 36.596C37.1841 40.908 38.1921 43.666 39.0321 44.87C39.2561 45.262 39.4941 45.458 39.7461 45.458C40.2501 45.458 41.4541 43.848 43.3581 40.628C44.5621 38.556 45.8641 36.106 47.2641 33.278C48.6641 30.422 49.8681 27.342 50.8761 24.038C51.8841 20.706 52.3881 17.78 52.3881 15.26C52.3881 14.448 51.9541 14.042 51.0861 14.042C49.7701 14.042 48.3001 14.336 46.6761 14.924C45.0521 15.512 44.2401 16.1 44.2401 16.688C44.2401 16.884 44.3101 17.066 44.4501 17.234C46.1861 18.326 47.0541 20.188 47.0541 22.82C47.0541 24.528 46.6621 26.544 45.8781 28.868C45.0941 31.192 44.4641 32.816 43.9881 33.74C43.5401 34.636 43.1761 35.336 42.8961 35.84C42.6441 36.316 42.3921 36.554 42.1401 36.554C41.8881 36.554 41.6781 36.358 41.5101 35.966C40.7541 34.006 39.5781 29.246 37.9821 21.686C37.1981 18.074 36.5541 15.75 36.0501 14.714C35.8821 14.238 35.3781 14 34.5381 14C33.7261 14 32.5641 14.168 31.0521 14.504C29.5401 14.84 28.7841 15.274 28.7841 15.806C28.7841 16.03 28.9241 16.212 29.2041 16.352C30.2401 17.024 31.1361 18.368 31.8921 20.384C32.6481 22.4 33.3901 25.102 34.1181 28.49ZM27.068 36.722C27.068 35.378 26.802 34.706 26.27 34.706C26.046 34.706 25.864 34.832 25.724 35.084C25.36 35.896 24.898 36.596 24.338 37.184C23.022 38.668 21.538 39.41 19.886 39.41C18.906 39.41 18.038 39.228 17.282 38.864C16.078 38.276 15.084 37.1 14.3 35.336C13.656 33.908 13.334 32.018 13.334 29.666C13.334 27.314 13.754 24.738 14.594 21.938C15.014 20.538 15.63 19.376 16.442 18.452C17.282 17.528 18.206 17.066 19.214 17.066C20.222 17.066 20.992 17.416 21.524 18.116C21.804 18.508 21.944 18.97 21.944 19.502C21.944 20.174 21.776 20.762 21.44 21.266C21.104 21.77 20.74 22.078 20.348 22.19C19.984 22.274 19.802 22.582 19.802 23.114C19.802 23.646 19.914 24.136 20.138 24.584C20.67 25.732 21.58 26.306 22.868 26.306C23.708 26.306 24.436 26.124 25.052 25.76C25.668 25.368 26.116 24.934 26.396 24.458C27.012 23.422 27.32 22.26 27.32 20.972C27.32 19.768 27.082 18.718 26.606 17.822C26.13 16.926 25.584 16.268 24.968 15.848C24.352 15.4 23.554 15.036 22.574 14.756C21.622 14.448 20.698 14.294 19.802 14.294C17.702 14.294 15.854 14.826 14.258 15.89C12.662 16.954 11.43 18.368 10.562 20.132C9.694 21.868 9.05 23.702 8.63 25.634C8.21 27.566 8 29.638 8 31.85C8 34.062 8.322 36.176 8.966 38.192C9.386 39.536 9.946 40.698 10.646 41.678C11.346 42.63 12.354 43.456 13.67 44.156C16.274 45.528 19.074 45.556 22.07 44.24C22.966 43.876 23.764 43.4 24.464 42.812C25.192 42.224 25.808 41.398 26.312 40.334C26.816 39.27 27.068 38.066 27.068 36.722Z" fill="black"/>
</svg>
