<svg width="52" height="52" viewBox="0 0 52 52" fill="none" xmlns="http://www.w3.org/2000/svg">
<path fill-rule="evenodd" clip-rule="evenodd" d="M27.9886 11.9375C27.9886 11.0746 27.2891 10.375 26.4261 10.375H5.6875C3.09866 10.375 1 12.4737 1 15.0625V46.3125C1 48.9013 3.09866 51 5.6875 51H36.9375C39.5263 51 41.625 48.9013 41.625 46.3125V25.5739C41.625 24.7109 40.9254 24.0114 40.0625 24.0114C39.1996 24.0114 38.5 24.7109 38.5 25.5739V46.3125C38.5 47.1754 37.8004 47.875 36.9375 47.875H5.6875C4.82455 47.875 4.125 47.1754 4.125 46.3125V15.0625C4.125 14.1996 4.82455 13.5 5.6875 13.5H26.4261C27.2891 13.5 27.9886 12.8004 27.9886 11.9375Z" fill="black"/>
<path fill-rule="evenodd" clip-rule="evenodd" d="M51 2.5625C51 1.69956 50.3004 1 49.4375 1H33.8125C32.9496 1 32.25 1.69956 32.25 2.5625C32.25 3.42544 32.9496 4.125 33.8125 4.125H45.6653L20.2076 29.5826C19.5975 30.1928 19.5975 31.1822 20.2076 31.7924C20.8178 32.4025 21.8072 32.4025 22.4174 31.7924L47.875 6.33471V18.1875C47.875 19.0504 48.5746 19.75 49.4375 19.75C50.3004 19.75 51 19.0504 51 18.1875V2.5625Z" fill="black"/>
<path d="M45.6653 4.125L46.3724 4.83211C46.6584 4.54611 46.744 4.11599 46.5892 3.74232C46.4344 3.36864 46.0698 3.125 45.6653 3.125V4.125ZM20.2076 29.5826L19.5005 28.8755L19.5005 28.8755L20.2076 29.5826ZM20.2076 31.7924L19.5005 32.4995L19.5005 32.4995L20.2076 31.7924ZM22.4174 31.7924L23.1245 32.4995L23.1245 32.4995L22.4174 31.7924ZM47.875 6.33471H48.875C48.875 5.93025 48.6314 5.56561 48.2577 5.41083C47.884 5.25605 47.4539 5.3416 47.1679 5.6276L47.875 6.33471ZM26.4261 11.375C26.7368 11.375 26.9886 11.6268 26.9886 11.9375H28.9886C28.9886 10.5223 27.8414 9.375 26.4261 9.375V11.375ZM5.6875 11.375H26.4261V9.375H5.6875V11.375ZM2 15.0625C2 13.026 3.65095 11.375 5.6875 11.375V9.375C2.54638 9.375 0 11.9214 0 15.0625H2ZM2 46.3125V15.0625H0V46.3125H2ZM5.6875 50C3.65095 50 2 48.3491 2 46.3125H0C0 49.4536 2.54638 52 5.6875 52V50ZM36.9375 50H5.6875V52H36.9375V50ZM40.625 46.3125C40.625 48.3491 38.9741 50 36.9375 50V52C40.0786 52 42.625 49.4536 42.625 46.3125H40.625ZM40.625 25.5739V46.3125H42.625V25.5739H40.625ZM40.0625 25.0114C40.3732 25.0114 40.625 25.2632 40.625 25.5739H42.625C42.625 24.1586 41.4777 23.0114 40.0625 23.0114V25.0114ZM39.5 25.5739C39.5 25.2632 39.7518 25.0114 40.0625 25.0114V23.0114C38.6473 23.0114 37.5 24.1586 37.5 25.5739H39.5ZM39.5 46.3125V25.5739H37.5V46.3125H39.5ZM36.9375 48.875C38.3527 48.875 39.5 47.7277 39.5 46.3125H37.5C37.5 46.6232 37.2482 46.875 36.9375 46.875V48.875ZM5.6875 48.875H36.9375V46.875H5.6875V48.875ZM3.125 46.3125C3.125 47.7277 4.27227 48.875 5.6875 48.875V46.875C5.37684 46.875 5.125 46.6232 5.125 46.3125H3.125ZM3.125 15.0625V46.3125H5.125V15.0625H3.125ZM5.6875 12.5C4.27227 12.5 3.125 13.6473 3.125 15.0625H5.125C5.125 14.7518 5.37684 14.5 5.6875 14.5V12.5ZM26.4261 12.5H5.6875V14.5H26.4261V12.5ZM26.9886 11.9375C26.9886 12.2482 26.7368 12.5 26.4261 12.5V14.5C27.8414 14.5 28.9886 13.3527 28.9886 11.9375H26.9886ZM49.4375 2C49.7482 2 50 2.25184 50 2.5625H52C52 1.14727 50.8527 0 49.4375 0V2ZM33.8125 2H49.4375V0H33.8125V2ZM33.25 2.5625C33.25 2.25184 33.5018 2 33.8125 2V0C32.3973 0 31.25 1.14727 31.25 2.5625H33.25ZM33.8125 3.125C33.5018 3.125 33.25 2.87316 33.25 2.5625H31.25C31.25 3.97773 32.3973 5.125 33.8125 5.125V3.125ZM45.6653 3.125H33.8125V5.125H45.6653V3.125ZM20.9148 30.2898L46.3724 4.83211L44.9582 3.41789L19.5005 28.8755L20.9148 30.2898ZM20.9148 31.0852C20.6951 30.8656 20.6951 30.5094 20.9148 30.2898L19.5005 28.8755C18.4998 29.8763 18.4998 31.4987 19.5005 32.4995L20.9148 31.0852ZM21.7102 31.0852C21.4906 31.3049 21.1344 31.3049 20.9148 31.0852L19.5005 32.4995C20.5013 33.5002 22.1237 33.5002 23.1245 32.4995L21.7102 31.0852ZM47.1679 5.6276L21.7102 31.0852L23.1245 32.4995L48.5821 7.04182L47.1679 5.6276ZM48.875 18.1875V6.33471H46.875V18.1875H48.875ZM49.4375 18.75C49.1268 18.75 48.875 18.4982 48.875 18.1875H46.875C46.875 19.6027 48.0223 20.75 49.4375 20.75V18.75ZM50 18.1875C50 18.4982 49.7482 18.75 49.4375 18.75V20.75C50.8527 20.75 52 19.6027 52 18.1875H50ZM50 2.5625V18.1875H52V2.5625H50Z" fill="black"/>
</svg>
