<svg width="30" height="30" viewBox="0 0 30 30" fill="none" xmlns="http://www.w3.org/2000/svg">
<path d="M0 2.14901C0 0.962462 0.986273 0 2.20296 0H27.797C29.0137 0 30 0.962466 30 2.14901V27.851C30 29.0379 29.0137 30 27.797 30L2.20296 30C0.986273 30 0 29.0379 0 27.851V2.14901ZM9.26884 25.1131V11.5664H4.76617V25.1131H9.26884ZM7.01748 9.71686C8.58765 9.71686 9.56495 8.67662 9.56495 7.37663C9.53569 6.04738 8.58766 5.03601 7.04727 5.03601C5.50704 5.03601 4.5 6.04738 4.5 7.37663C4.5 8.67662 5.47709 9.71686 6.98814 9.71686H7.01748ZM16.2214 25.1131V17.5481C16.2214 17.1432 16.2506 16.7387 16.3695 16.4493C16.695 15.6404 17.4359 14.8026 18.6798 14.8026C20.3091 14.8026 20.9608 16.0448 20.9608 17.8659V25.1131H25.4631V17.3456C25.4631 13.1847 23.2417 11.2485 20.2793 11.2485C17.8908 11.2485 16.8199 12.5613 16.2215 13.4844V13.531H16.1914C16.2013 13.5156 16.2113 13.5 16.2215 13.4844V11.5664H11.7189C11.778 12.8376 11.7189 25.1131 11.7189 25.1131H16.2214Z" fill="#352D29"/>
</svg>
